Coordinates
version=1
nRows=10
nColumns=63
inDegrees=yes

Units are S.I. units (second, meters, Newtons, ...)
If the header above contains a line with 'inDegrees', this indicates whether rotational values are in degrees (yes) or radians (no).

endheader
time	pelvis_tilt	pelvis_list	pelvis_rotation	pelvis_tx	pelvis_ty	pelvis_tz	hip_flexion_r	hip_adduction_r	hip_rotation_r	knee_angle_r	knee_angle_r_beta	ankle_angle_r	subtalar_angle_r	mtp_angle_r	hip_flexion_l	hip_adduction_l	hip_rotation_l	knee_angle_l	knee_angle_l_beta	ankle_angle_l	subtalar_angle_l	mtp_angle_l	L5_S1_Flex_Ext	L5_S1_Lat_Bending	L5_S1_axial_rotation	L4_L5_Flex_Ext	L4_L5_Lat_Bending	L4_L5_axial_rotation	L3_L4_Flex_Ext	L3_L4_Lat_Bending	L3_L4_axial_rotation	L2_L3_Flex_Ext	L2_L3_Lat_Bending	L2_L3_axial_rotation	L1_L2_Flex_Ext	L1_L2_Lat_Bending	L1_L2_axial_rotation	L1_T12_Flex_Ext	L1_T12_Lat_Bending	L1_T12_axial_rotation	Abs_r3	Abs_r2	Abs_r1	Abs_t1	Abs_t2	neck_flexion	neck_bending	neck_rotation	arm_flex_r	arm_add_r	arm_rot_r	elbow_flex_r	pro_sup_r	wrist_flex_r	wrist_dev_r	arm_flex_l	arm_add_l	arm_rot_l	elbow_flex_l	pro_sup_l	wrist_flex_l	wrist_dev_l
2.066667	1.941309	-4.342440	87.976725	0.319998	1.065456	0.397552	0.789436	-4.201219	2.862077	6.270074	0.109433	29.146453	5.075424	0.000000	1.255125	3.234962	1.738059	7.173331	0.125198	26.734222	-9.116538	0.000000	0.043426	0.058094	0.356335	0.080647	0.077266	0.378606	0.071345	0.141251	0.378606	0.049632	0.141251	0.311793	0.040326	0.118466	0.289522	0.024814	0.089988	0.267251	0.310191	0.657175	1.981827	0.000000	0.000000	26.488979	-1.659302	7.262111	9.401337	-14.456071	73.635193	30.910121	88.628998	-12.998297	-2.950323	11.757739	-6.290488	153.886369	2.337614	5.987111	-1.953520	-10.801320
2.083333	1.967519	-4.318663	87.865336	0.320129	1.065474	0.397336	0.758574	-4.179119	2.869622	6.310026	0.110131	29.064041	5.175491	0.000000	1.179369	3.194126	1.397917	7.135933	0.124546	26.812995	-8.785804	0.000000	0.042596	0.062376	0.379995	0.079105	0.082960	0.403745	0.069981	0.151660	0.403745	0.048683	0.151660	0.332496	0.039555	0.127197	0.308746	0.024339	0.096620	0.284996	0.304260	0.705607	2.113420	0.000000	0.000000	26.482423	-1.694449	7.272374	9.242678	-14.502782	73.106237	30.963228	88.615466	-12.867128	-2.853239	12.005505	-6.304951	154.110064	2.462199	6.152289	-1.035032	-10.859301
2.100000	1.992678	-4.315110	87.807651	0.320182	1.065514	0.397236	0.756362	-4.164179	2.706146	6.341622	0.110682	29.029427	5.387339	0.000000	1.153388	3.152897	1.046306	7.142641	0.124663	26.916781	-8.381094	0.000000	0.042985	0.066235	0.390957	0.079828	0.088092	0.415392	0.070621	0.161043	0.415392	0.049128	0.161043	0.342088	0.039916	0.135066	0.317653	0.024562	0.102598	0.293218	0.307040	0.749260	2.174387	0.000000	0.000000	26.487603	-1.721885	7.281806	9.138084	-14.548957	72.718633	31.019889	88.612448	-12.851402	-2.873888	12.254872	-6.274000	155.020663	2.489434	6.435855	-0.191466	-10.864098
2.116667	2.013631	-4.329812	87.813740	0.320134	1.065582	0.397272	0.781879	-4.161717	2.341527	6.371230	0.111199	29.042640	5.730521	0.000000	1.178913	3.109274	0.625360	7.197014	0.125612	27.069091	-7.796358	0.000000	0.043890	0.069422	0.386777	0.081509	0.092331	0.410951	0.072108	0.168791	0.410951	0.050162	0.168791	0.338430	0.040757	0.141564	0.314257	0.025079	0.107534	0.290083	0.313505	0.785310	2.151140	0.000000	0.000000	26.505970	-1.723504	7.313198	9.106672	-14.587693	72.532408	31.059547	88.615091	-12.978098	-3.038378	12.532644	-6.213802	156.244589	2.527700	6.961442	0.473515	-10.851758
2.133333	2.046455	-4.357605	87.896794	0.319917	1.065705	0.397460	0.826876	-4.161958	1.709151	6.404029	0.111771	29.086776	6.282944	0.000000	1.248788	3.054287	0.214538	7.290500	0.127243	27.243413	-7.129779	0.000000	0.044574	0.074704	0.370083	0.082779	0.099356	0.393213	0.073231	0.181635	0.393213	0.050944	0.181635	0.323823	0.041392	0.152336	0.300692	0.025470	0.115716	0.277562	0.318390	0.845063	2.058290	0.000000	0.000000	26.531075	-1.733200	7.346135	9.138878	-14.640816	72.509464	31.091018	88.623242	-13.189647	-3.290888	13.066695	-5.858961	160.366231	2.235451	4.908444	1.183950	-11.352312
2.150000	2.051047	-4.404809	88.037425	0.319666	1.065812	0.397773	0.895345	-4.189555	1.038919	6.441545	0.112426	29.136497	6.772971	0.000000	1.368025	3.022525	-0.206816	7.421126	0.129523	27.447392	-6.372631	0.000000	0.046077	0.075376	0.338756	0.085569	0.100250	0.359928	0.075699	0.183269	0.359928	0.052661	0.183269	0.296411	0.042787	0.153707	0.275239	0.026328	0.116757	0.254067	0.329121	0.852669	1.884057	0.000000	0.000000	26.571050	-1.708393	7.371346	9.229748	-14.653015	72.636221	31.085876	88.634220	-13.438945	-3.607384	13.534626	-5.739185	162.369956	2.381272	4.599250	1.719168	-11.482272
2.166667	2.033786	-4.470132	88.264436	0.319334	1.065896	0.398194	0.978628	-4.243684	0.221802	6.489634	0.113265	29.197391	7.317237	0.000000	1.537605	3.009834	-0.594403	7.594600	0.132551	27.676019	-5.549058	0.000000	0.048170	0.072567	0.285897	0.089456	0.096515	0.303766	0.079138	0.176440	0.303766	0.055053	0.176440	0.250160	0.044731	0.147979	0.232291	0.027524	0.112407	0.214423	0.344073	0.820896	1.590074	0.000000	0.000000	26.628758	-1.644199	7.415018	9.377440	-14.623108	72.909455	31.036532	88.638658	-13.683504	-3.936893	13.923615	-5.836651	162.324591	2.936531	5.809253	2.087261	-11.277424
2.183333	1.992570	-4.550497	88.514204	0.318998	1.065949	0.398690	1.078984	-4.314561	-0.461423	6.544556	0.114224	29.223945	7.643281	0.000000	1.739316	3.020814	-0.940303	7.785894	0.135889	27.895359	-4.758373	0.000000	0.051017	0.066191	0.226381	0.094744	0.088034	0.240530	0.083816	0.160936	0.240530	0.058307	0.160936	0.198083	0.047374	0.134976	0.183935	0.029151	0.102529	0.169786	0.364409	0.748762	1.259064	0.000000	0.000000	26.700805	-1.560544	7.455716	9.544217	-14.557050	73.227908	30.946376	88.638618	-13.895391	-4.249458	14.252267	-6.123841	160.531675	3.842065	8.343362	2.365086	-10.772096
2.200000	1.941340	-4.635422	88.783540	0.318661	1.065988	0.399230	1.176963	-4.386827	-1.000321	6.591689	0.115047	29.203675	7.758101	0.000000	1.966941	3.027516	-1.420952	8.015625	0.139899	28.162844	-3.757070	0.000000	0.053419	0.058268	0.164253	0.099204	0.077497	0.174519	0.087762	0.141673	0.174519	0.061052	0.141673	0.143721	0.049605	0.118820	0.133456	0.030524	0.090257	0.123190	0.381565	0.659140	0.913526	0.000000	0.000000	26.785383	-1.489654	7.480808	9.707463	-14.473205	73.507365	30.838101	88.635334	-14.017389	-4.483095	14.604829	-6.547309	157.755834	5.015022	11.628263	2.412751	-10.048941
2.216667	1.878471	-4.723950	89.052695	0.318348	1.066017	0.399763	1.280862	-4.468672	-1.496849	6.651497	0.116091	29.175613	7.834259	0.000000	2.197707	3.045984	-1.869589	8.240451	0.143823	28.408606	-2.796712	0.000000	0.056192	0.048747	0.099128	0.104355	0.064833	0.105324	0.092318	0.118523	0.105324	0.064222	0.118523	0.086737	0.052180	0.099404	0.080542	0.032108	0.075509	0.074346	0.401376	0.551433	0.551320	0.000000	0.000000	26.873210	-1.408817	7.527079	9.887436	-14.350272	73.863012	30.664764	88.619706	-14.149473	-4.694741	14.885271	-7.118576	153.565316	6.464241	16.174245	2.240649	-9.035611
